<?xml version="1.0" encoding="UTF-8"?>
<svg width="512px" height="512px" viewBox="0 0 512 512" version="1.1" xmlns="http://www.w3.org/2000/svg" xmlns:xlink="http://www.w3.org/1999/xlink">
    <title>assets/app-icon/AppIcon_AppStore</title>
    <g id="001-to-Export-(Apps-Icon-+-Assets)" stroke="none" stroke-width="1" fill="none" fill-rule="evenodd">
        <g id="Assets-1-(to-Export)" transform="translate(-1664.000000, -4844.000000)">
            <g id="app-icon-favion-web" transform="translate(1164.000000, 4844.000000)">
                <g id="assets/app-icon/AppIcon_AppStore" transform="translate(500.000000, 0.000000)">
                    <rect id="background" fill="#0E0F0F" x="0" y="0" width="512" height="512"></rect>
                    <g id="assets/brand/logo/asos-icon-white" transform="translate(77.000000, 76.000000)">
                        <path d="M360,179.999743 C360,279.411256 279.411256,360 179.999743,360 C80.5887444,360 0,279.411256 0,179.999743 C0,80.5887444 80.5887444,0 179.999743,0 C279.411256,0 360,80.5887444 360,179.999743" id="bg" fill="#FFFFFF"></path>
                        <path d="M224.446074,94.5251893 L224.446074,105.886829 C209.120581,95.124634 192.498351,90.0983625 174.509861,90.0056649 L174.509861,90 C174.425918,90 174.341461,90.0030899 174.256488,90.0030899 C174.171,90.0030899 174.087572,90 174.004659,90 L174.004659,90.0056649 C152.281485,90.116902 132.547704,97.4152954 114.685901,113.333538 C104.846563,122.209336 97.3663788,132.292264 92.4199303,143.394865 C87.5157107,154.449057 85,166.84273 85,180.16544 C85,192.606491 87.2134134,204.267853 91.5635072,214.811694 C95.9192658,225.349869 102.542511,235.107325 111.272053,243.798757 C119.9949,252.501005 129.749266,259.120646 140.251907,263.45941 C150.530529,267.702386 161.854575,269.90344 173.876942,269.991503 L173.876942,270.000257 C174.004659,270.000257 174.129801,269.996138 174.256488,269.995623 C174.384719,269.996138 174.509861,270.000257 174.636548,270.000257 L174.636548,269.991503 C186.659431,269.90344 197.981931,267.702386 208.261583,263.45941 C213.886784,261.134759 219.294661,258.151955 224.446074,254.549623 L224.446074,265.469403 L261.96956,265.469403 L261.96956,94.5251893 L224.446074,94.5251893 Z M124.066901,180.182949 C124.066901,151.556891 141.982778,123.830515 174.256488,123.830515 C206.530198,123.830515 224.446074,151.556891 224.446074,180.182949 C224.446074,255.971501 124.066901,255.951417 124.066901,180.182949 L124.066901,180.182949 Z" id="letter-a" fill="#0E0F0F"></path>
                    </g>
                </g>
            </g>
        </g>
    </g>
</svg>