<?xml version="1.0" encoding="utf-8"?>
<svg viewBox="62.579 33.283 189.158 57.839" height="125.10667" width="297.67999" id="svg2" version="1.1" xmlns="http://www.w3.org/2000/svg">
  <g transform="matrix(1.4896, 0, 0, -1.4896, 59.362488, 169.484619)" style="">
    <g transform="matrix(1, 0, 0, 1, -1.342642, 0)">
      <path id="path-1" style="fill-opacity: 1; fill-rule: nonzero; stroke: none; fill: rgb(58, 58, 60);" d="M 72.192 70.102 C 72.192 73.143 70.905 75.055 67.746 75.055 C 64.625 75.055 63.338 73.143 63.338 70.102 L 63.338 66.123 C 63.338 63.081 64.625 61.17 67.746 61.17 C 70.905 61.17 72.192 63.081 72.192 66.123 Z M 67.746 58.05 C 62.207 58.05 59.906 61.677 59.906 66.123 L 59.906 70.141 C 59.906 74.587 62.207 78.214 67.746 78.214 C 73.323 78.214 75.585 74.587 75.585 70.141 L 75.585 66.123 C 75.585 61.677 73.323 58.05 67.746 58.05"/>
      <path id="path-2" style="fill-opacity: 1; fill-rule: nonzero; stroke: none; fill: rgb(58, 58, 60);" d="M 92.132 70.102 C 92.132 73.143 90.845 75.055 87.686 75.055 C 84.565 75.055 83.278 73.143 83.278 70.102 L 83.278 66.123 C 83.278 63.081 84.565 61.17 87.686 61.17 C 90.845 61.17 92.132 63.081 92.132 66.123 Z M 87.686 58.05 C 82.148 58.05 79.846 61.677 79.846 66.123 L 79.846 70.141 C 79.846 74.587 82.148 78.214 87.686 78.214 C 93.263 78.214 95.525 74.587 95.525 70.141 L 95.525 66.123 C 95.525 61.677 93.263 58.05 87.686 58.05"/>
      <path id="path-3" style="fill-opacity: 1; fill-rule: nonzero; stroke: none; fill: rgb(58, 58, 60);" d="M 105.883 58.05 C 103.309 58.05 101.826 58.362 100.344 58.908 C 99.525 59.181 99.252 60.078 99.486 60.819 C 99.759 61.638 100.617 62.028 101.437 61.716 C 102.646 61.248 103.776 60.975 105.921 60.975 C 108.769 60.975 110.056 62.184 110.056 63.94 C 110.056 66.397 107.287 66.514 104.557 67.138 C 101.982 67.723 99.525 68.697 99.525 72.402 C 99.525 76.147 102.45 78.214 106.194 78.214 C 108.379 78.214 109.783 77.94 111.265 77.356 C 112.084 77.083 112.396 76.225 112.123 75.444 C 111.85 74.703 111.07 74.274 110.251 74.548 C 108.925 75.055 107.872 75.327 106.351 75.327 C 103.972 75.327 102.763 74.157 102.763 72.559 C 102.763 70.374 105.142 70.102 107.716 69.556 C 110.446 69.01 113.332 68.151 113.332 64.057 C 113.332 60 110.134 58.05 105.883 58.05"/>
      <path id="path-4" style="fill-opacity: 1; fill-rule: nonzero; stroke: none; fill: rgb(58, 58, 60);" d="M 124.282 76.517 C 124.282 77.325 124.937 77.979 125.745 77.979 L 127.909 77.979 C 128.729 77.979 129.391 77.316 129.391 76.498 C 129.391 75.718 128.729 75.055 127.909 75.055 L 125.745 75.055 C 124.937 75.055 124.282 75.709 124.282 76.517 L 124.282 76.517"/>
      <path id="path-5" style="fill-opacity: 1; fill-rule: nonzero; stroke: none; fill: rgb(58, 58, 60);" d="M 122.044 75.055 L 122.083 66.786 C 122.083 62.886 122.707 61.404 125.788 61.404 L 126.607 61.404 C 127.465 61.404 128.128 60.702 128.128 59.844 C 128.128 58.986 127.465 58.284 126.607 58.284 L 125.437 58.284 C 120.055 58.284 118.651 61.638 118.651 66.747 L 118.651 75.055 L 117.52 75.055 C 116.701 75.055 116.038 75.718 116.038 76.498 C 116.038 77.316 116.701 77.979 117.52 77.979 L 118.651 77.979 L 118.651 81.997 C 118.651 82.932 119.392 83.713 120.367 83.713 C 121.303 83.713 122.044 82.932 122.044 81.997 L 122.044 77.979"/>
      <path id="path-6" style="fill-opacity: 1; fill-rule: nonzero; stroke: none; fill: rgb(58, 58, 60);" d="M 48.815 78.214 C 47.139 78.214 45.306 77.551 43.94 76.381 L 43.94 81.451 L 43.94 84.753 C 43.94 85.502 43.491 86.221 42.774 86.438 C 41.596 86.794 40.547 85.965 40.547 84.805 L 40.547 59.747 C 40.547 58.809 41.307 58.05 42.244 58.05 L 42.244 58.05 C 43.182 58.05 43.942 58.809 43.941 59.747 L 43.94 62.496 L 43.94 62.796 L 43.94 73.182 C 45.111 74.626 46.788 75.25 48.152 75.25 C 51.117 75.25 52.17 73.455 52.17 70.219 L 52.17 65.811 C 52.17 62.691 50.922 61.014 47.879 61.014 C 47.707 61.014 47.534 61.022 47.362 61.04 C 46.534 61.123 45.834 60.42 45.834 59.588 L 45.834 59.588 C 45.834 58.89 46.327 58.269 47.017 58.158 C 47.456 58.088 47.902 58.05 48.348 58.05 C 53.379 58.05 55.602 61.053 55.602 66.045 L 55.602 69.789 C 55.602 74.898 54.003 78.214 48.815 78.214"/>
    </g>
  </g>
  <g transform="matrix(1.333333, 0, 0, -1.333333, 3.046337, 124.920479)">
    <path id="path-7" style="fill: rgb(56, 153, 169); fill-opacity: 1; fill-rule: nonzero; stroke: none;" d="M 61.179 64.205 L 62.486 64.717 L 62.486 63.006 C 62.486 62.206 63.292 61.656 64.038 61.949 L 64.038 61.949 C 64.472 62.119 64.759 62.539 64.759 63.006 L 64.759 66.383 C 64.759 66.759 64.573 67.11 64.263 67.323 C 63.951 67.534 63.557 67.579 63.208 67.441 L 60.349 66.32 C 59.914 66.15 59.628 65.73 59.628 65.263 L 59.628 65.263 C 59.628 64.462 60.433 63.912 61.179 64.205"/>
    <path id="path-8" style="fill: rgb(31, 50, 92); fill-opacity: 1; fill-rule: nonzero; stroke: none;" d="M 64.759 58.914 C 64.759 59.714 63.954 60.263 63.208 59.971 L 63.207 59.971 C 62.773 59.801 62.486 59.381 62.486 58.913 L 62.486 53.507 L 64.759 54.398 L 64.759 58.914"/>
    <path id="path-9" style="fill: rgb(31, 50, 92); fill-opacity: 1; fill-rule: nonzero; stroke: none;" d="M 48.146 38.92 L 48.146 59.095 L 57.41 62.726 C 57.844 62.897 58.131 63.316 58.131 63.784 C 58.131 64.584 57.325 65.134 56.579 64.842 L 46.596 60.928 C 46.16 60.757 45.874 60.338 45.874 59.87 L 45.874 37.255 C 45.874 36.878 46.059 36.527 46.37 36.315 C 46.561 36.185 46.785 36.118 47.01 36.118 C 47.15 36.118 47.291 36.143 47.424 36.196 L 55.68 39.433 L 55.68 41.874 L 48.146 38.92"/>
    <path id="path-10" style="fill: rgb(223, 234, 74); fill-opacity: 1; fill-rule: nonzero; stroke: none;" d="M 62.486 53.507 L 56.402 51.121 C 55.967 50.951 55.68 50.53 55.68 50.063 L 55.68 41.874 L 62.486 44.542 L 62.486 53.507"/>
    <path id="path-11" style="fill: rgb(223, 234, 74); fill-opacity: 1; fill-rule: nonzero; stroke: none;" d="M 73.429 33.961 L 73.437 33.961 Z M 74.069 57.516 C 73.759 57.728 73.363 57.773 73.015 57.635 L 64.759 54.398 L 64.759 43.767 C 64.759 43.3 64.472 42.88 64.038 42.71 L 55.68 39.433 L 55.68 27.447 C 55.68 27.072 55.866 26.721 56.176 26.509 C 56.368 26.378 56.591 26.311 56.816 26.311 C 56.957 26.311 57.097 26.338 57.232 26.39 L 73.843 32.903 C 74.279 33.074 74.565 33.494 74.565 33.961 L 74.565 56.577 C 74.565 56.953 74.38 57.305 74.069 57.516"/>
    <path id="path-12" style="fill: rgb(56, 153, 169); fill-opacity: 1; fill-rule: nonzero; stroke: none;" d="M 63.623 43.767 L 63.63 43.767 Z M 64.759 43.767 L 64.759 54.398 L 62.486 53.507 L 62.486 44.542 L 55.68 41.874 L 55.68 39.433 L 64.038 42.71 C 64.472 42.88 64.759 43.3 64.759 43.767"/>
  </g>
</svg>
