<?xml version="1.0" encoding="UTF-8" standalone="no"?>
<!-- Created with Inkscape (http://www.inkscape.org/) -->

<svg
   xmlns:dc="http://purl.org/dc/elements/1.1/"
   xmlns:cc="http://creativecommons.org/ns#"
   xmlns:rdf="http://www.w3.org/1999/02/22-rdf-syntax-ns#"
   xmlns:svg="http://www.w3.org/2000/svg"
   xmlns="http://www.w3.org/2000/svg"
   xmlns:sodipodi="http://sodipodi.sourceforge.net/DTD/sodipodi-0.dtd"
   xmlns:inkscape="http://www.inkscape.org/namespaces/inkscape"
   width="300"
   height="120.32412"
   id="svg2"
   version="1.1"
   inkscape:version="0.48.2 r9819"
   sodipodi:docname="eBay New.svg">
  <defs
     id="defs4" />
  <sodipodi:namedview
     id="base"
     pagecolor="#ffffff"
     bordercolor="#666666"
     borderopacity="1.0"
     inkscape:pageopacity="0.0"
     inkscape:pageshadow="2"
     inkscape:zoom="0.5"
     inkscape:cx="360.77294"
     inkscape:cy="345.04138"
     inkscape:document-units="px"
     inkscape:current-layer="g3029"
     showgrid="false"
     fit-margin-top="0.1"
     fit-margin-left="0.1"
     fit-margin-right="0.1"
     fit-margin-bottom="0.1"
     inkscape:window-width="1275"
     inkscape:window-height="1037"
     inkscape:window-x="629"
     inkscape:window-y="16"
     inkscape:window-maximized="0">
    <inkscape:grid
       type="xygrid"
       id="grid2996"
       empspacing="5"
       visible="true"
       enabled="true"
       snapvisiblegridlinesonly="true" />
  </sodipodi:namedview>
  <metadata
     id="metadata7">
    <rdf:RDF>
      <cc:Work
         rdf:about="">
        <dc:format>image/svg+xml</dc:format>
        <dc:type
           rdf:resource="http://purl.org/dc/dcmitype/StillImage" />
        <dc:title />
      </cc:Work>
    </rdf:RDF>
  </metadata>
  <g
     inkscape:label="Layer 1"
     inkscape:groupmode="layer"
     id="layer1"
     transform="translate(225.63749,-1580.8223)">
    <g
       id="g3029"
       transform="matrix(1.7273242,0,0,1.7273242,-406.15083,-73.926345)"
       style="fill:#4d4d4d">
      <g
         id="g3824"
         style="fill:#000000;fill-opacity:1;stroke:none"
         transform="matrix(0.31609952,0,0,0.31609952,71.510344,702.76602)">
        <path
           sodipodi:nodetypes="sccsscssscccssscsssc"
           inkscape:connector-curvature="0"
           style="fill:#f5af02;fill-opacity:1;stroke:none"
           d="m 453.54215,855.58021 c -58.26333,0 -62,31.90215 -62,37 l 29,0 c 0,0 1.52074,-18.625 31,-18.625 19.1561,0 34,8.76805 34,25.625 l 0,6 -34,0 c -45.13742,0 -69,13.20448 -69,40 0,26.37064 22.04825,40.71875 51.84375,40.71875 40.60664,0 53.6875,-22.4375 53.6875,-22.4375 0,8.92441 0.68805,17.71875 0.68805,17.71875 l 25.7807,0 c 0,0 -1,-10.90086 -1,-17.875 l 0,-60.28125 c 0,-39.52559 -31.88152,-47.84375 -60,-47.84375 z m 32,68 0,8 c 0,10.43418 -6.43861,36.375 -44.34375,36.375 -20.75671,0 -29.65625,-10.35914 -29.65625,-22.375 0,-21.85922 29.96995,-22 74,-22 z"
           id="path3020" />
        <path
           sodipodi:nodetypes="ccccccccc"
           inkscape:connector-curvature="0"
           id="path3024"
           d="m 497.92608,860.58525 32.625,0 46.82143,93.80357 46.71428,-93.80357 29.55358,0 -85.08929,166.99995 -31,0 24.55357,-46.55352 z"
           style="fill:#86b817;fill-opacity:1;stroke:none" />
        <path
           sodipodi:nodetypes="sssccsccsssccs"
           inkscape:connector-curvature="0"
           style="fill:#e53238;fill-opacity:1;stroke:none"
           d="m 175.5625,855.58021 c -38.72799,0 -71,16.43036 -71,66 0,39.27007 21.70059,64 72,64 59.20476,0 63,-39 63,-39 l -28.6875,0 c 0,0 -6.15084,21 -36.0625,21 -24.36223,0 -41.8845,-16.4574 -41.8845,-39.52484 l 109.6345,0 0,-14.47516 c 0,-22.82095 -14.48714,-58 -67,-58 z m -1,18.5 c 23.19032,0 39,14.20688 39,35.5 l -80,0 c 0,-22.60525 20.63566,-35.5 41,-35.5 z"
           id="path3012" />
        <path
           sodipodi:nodetypes="cccccssscccsssss"
           inkscape:connector-curvature="0"
           style="fill:#0064d2;fill-opacity:1;stroke:none"
           d="m 242.54215,807.58021 0,153.10632 c 0,8.6908 -0.62028,20.89368 -0.62028,20.89368 l 27.36183,0 c 0,0 0.98211,-8.76428 0.98211,-16.77398 0,0 13.51851,21.14898 50.27634,21.14898 38.70748,0 65,-26.87334 65,-65.375 0,-35.81754 -24.15052,-64.625 -64.9375,-64.625 -38.19413,0 -50.0625,20.625 -50.0625,20.625 l 0,-69 z m 71,67.3125 c 26.28538,0 43,19.50831 43,45.6875 0,28.07243 -19.30483,46.4375 -42.8125,46.4375 -28.05435,0 -43.1875,-21.90472 -43.1875,-46.1875 0,-22.62682 13.57942,-45.9375 43,-45.9375 z"
           id="path3016" />
      </g>
    </g>
  </g>
</svg>
